<?xml version="1.0" encoding="UTF-8"?>
<!DOCTYPE svg PUBLIC "-//W3C//DTD SVG 1.1//EN" "http://www.w3.org/Graphics/SVG/1.1/DTD/svg11.dtd">
<!-- Creator: CorelDRAW 2018 (64 Bit Versão de avaliação) -->
<svg xmlns="http://www.w3.org/2000/svg" xml:space="preserve" width="109px" height="109px" version="1.1" style="shape-rendering:geometricPrecision; text-rendering:geometricPrecision; image-rendering:optimizeQuality; fill-rule:evenodd; clip-rule:evenodd"
viewBox="0 0 5.77 5.75"
 xmlns:xlink="http://www.w3.org/1999/xlink">
 <defs>
  <style type="text/css">
   <![CDATA[
    .fil8 {fill:none}
    .fil0 {fill:#FF2773}
    .fil1 {fill:#FF2773;fill-opacity:0.000000}
    .fil5 {fill:#1E1524}
    .fil2 {fill:#6D00B0}
    .fil3 {fill:#F9F9F9}
    .fil6 {fill:#FCDA12}
    .fil4 {fill:#FF2773}
    .fil7 {fill:white}
   ]]>
  </style>
   <clipPath id="id0">
    <path d="M2.88 5.75c-1.59,0 -2.88,-1.29 -2.88,-2.88 0,-1.58 1.29,-2.87 2.88,-2.87 1.6,0 2.89,1.29 2.89,2.87 0,1.59 -1.29,2.88 -2.89,2.88z"/>
   </clipPath>
   <clipPath id="id1">
    <path d="M2.88 5.75c-1.59,0 -2.88,-1.29 -2.88,-2.88 0,-1.58 1.29,-2.87 2.88,-2.87 1.6,0 2.89,1.29 2.89,2.87 0,1.59 -1.29,2.88 -2.89,2.88z"/>
   </clipPath>
 </defs>
 <g id="Camada_x0020_1">
  <metadata id="CorelCorpID_0Corel-Layer"/>
  <path class="fil0" d="M2.88 5.75c-1.59,0 -2.88,-1.29 -2.88,-2.88 0,-1.58 1.29,-2.87 2.88,-2.87 1.6,0 2.89,1.29 2.89,2.87 0,1.59 -1.29,2.88 -2.89,2.88z"/>
  <g style="clip-path:url(#id0)">
   <polygon class="fil1" points="0,0 5.77,0 5.77,5.75 0,5.75 "/>
  </g>
  <g style="clip-path:url(#id1)">
   <g id="_2248399403392">
    <path id="1" class="fil2" d="M4.25 6.21c0.76,-0.4 1.2,-1.47 0.9,-2.24 -0.31,-0.78 -1.36,-1.24 -2.12,-1.72 -0.76,-0.47 -1.23,-0.95 -2.03,-1.28 -0.8,-0.33 -1.94,-0.52 -2.32,-0.04 -0.37,0.47 0,1.6 0.21,2.53 0.2,0.92 0.24,1.64 0.62,2.05 0.37,0.4 1.1,0.48 2,0.66 0.9,0.17 1.98,0.45 2.74,0.04z"/>
    <path class="fil3" d="M3.18 1.94c0.1,-0.08 0.16,-0.19 0.2,-0.28 0.01,-0.05 0.08,-0.05 0.1,-0.01 0.06,0.16 0.12,0.38 0.08,0.51 -0.06,0.21 -0.6,-0.08 -0.38,-0.22z"/>
    <path class="fil3" d="M3.3 3.52c-0.07,-0.05 -0.15,-0.05 -0.18,-0.01 0,0 0,0.01 -0.01,0.01l0 0 -0.07 0.17 -0.78 0.96c0,0 0,0 0,0l-0.01 0 0 0c0,0.01 0,0.01 0,0.01 -0.09,0.13 0,0.34 0.2,0.47 0.2,0.14 0.43,0.15 0.52,0.03 0.01,-0.02 0.02,-0.03 0.02,-0.05l0 0 0 0c0,-0.01 0,-0.01 0.01,-0.02l0.29 -1.23 0.09 -0.18c0.02,-0.05 -0.01,-0.12 -0.08,-0.16z"/>
    <path class="fil4" d="M0.82 2.73c-0.13,-0.28 0.13,-0.66 0.57,-0.85 0.44,-0.2 0.89,-0.13 1.01,0.14 0.12,0.27 -0.13,0.65 -0.57,0.85 -0.44,0.19 -0.89,0.13 -1.01,-0.14z"/>
    <path class="fil4" d="M0.47 4.08c-0.23,-0.27 -0.06,-0.78 0.38,-1.14 0.44,-0.36 0.97,-0.43 1.2,-0.16 0.22,0.28 0.05,0.79 -0.39,1.14 -0.43,0.36 -0.97,0.43 -1.19,0.16z"/>
    <path class="fil4" d="M0.3 5.51c-0.3,-0.24 -0.22,-0.83 0.17,-1.31 0.39,-0.48 0.96,-0.67 1.26,-0.42 0.3,0.24 0.22,0.83 -0.17,1.31 -0.39,0.48 -0.96,0.67 -1.26,0.42z"/>
    <path class="fil3" d="M0.31 6.57c0,0 0,0 0,0 0,0 0,-0.01 0,-0.01 0,-0.01 0,-0.01 0,-0.02 0,0 0,-0.01 0,-0.02 -0.02,-0.96 0.13,-1.84 0.34,-2.56 0.29,-0.97 1.75,-0.57 1.81,0.11 0.08,0.75 1.01,1.26 1.04,2.36 0,0 0,0.01 0,0.01 0.04,0.88 -0.65,1.62 -1.53,1.66 -0.66,0.03 -1.25,-0.35 -1.51,-0.91 -0.07,-0.14 -0.12,-0.3 -0.14,-0.49 -0.01,-0.04 -0.01,-0.08 -0.01,-0.13z"/>
    <path class="fil3" d="M2.12 8.98c-0.33,-0.65 -0.4,-2 -0.22,-2.69 0.23,-0.91 1.54,-0.67 1.6,0.07 0.05,0.74 -0.38,1.76 -1.07,2.61 -0.08,0.09 -0.28,0.07 -0.31,0.01z"/>
    <path class="fil3" d="M1.32 9c0.56,-1.08 0.55,-2.19 0.21,-2.78 -0.33,-0.59 -1.2,-0.39 -1.22,0.24 -0.03,0.63 0.18,1.65 0.7,2.56 0.04,0.07 0.28,0.05 0.31,-0.02z"/>
    <path class="fil5" d="M2.45 4c-0.01,-0.21 0.13,-0.39 0.13,-0.39 0,0 -0.43,-0.33 -0.56,-0.54 -0.13,-0.22 -0.24,0.01 -0.22,0.21 0.03,0.2 0.17,0.74 0.65,0.72z"/>
    <path class="fil3" d="M0.66 3.95c0.32,-1.08 0.78,-1.83 1.05,-2.06 0.47,-0.38 1.02,-0.42 2.2,0.48 1.04,0.8 1.34,1.54 0.66,1.93 -0.6,0.34 -1.21,0.03 -2.55,-1.15 -0.33,-0.29 -0.16,0.88 0.5,0.8 0.01,0 0.01,0 0.01,0.01 0.03,0.08 -0.07,0.1 -0.07,0.1 0.24,1.15 -2.15,1.06 -1.8,-0.11z"/>
    <path class="fil3" d="M1.51 2.12c0.33,-0.4 0.64,-0.62 0.77,-0.7 0.03,-0.01 0.07,0.01 0.06,0.04 -0.01,0.1 -0.01,0.26 0.05,0.39 0.2,0.39 -1.22,0.69 -0.88,0.27z"/>
    <path class="fil6" d="M2.67 1.93c0,0 0.36,-1.19 0.59,-1.65 0.01,-0.03 0.05,-0.02 0.06,0.01 0.04,0.53 -0.15,1.74 -0.15,1.74 -0.02,0.07 -0.14,0.1 -0.28,0.08 -0.14,-0.03 -0.24,-0.11 -0.22,-0.18z"/>
    <path class="fil7" d="M1.09 6.56c0.03,0.64 0.56,1.13 1.18,1.11 0.63,-0.03 1.08,-0.6 1.07,-1.24 -0.01,-0.73 -0.66,-1.79 -1.29,-1.76 -0.62,0.02 -0.98,1.26 -0.96,1.89z"/>
    <path class="fil4" d="M0.47 3.82c-0.03,-0.04 -0.01,-0.11 0.06,-0.17 0.06,-0.05 0.14,-0.06 0.17,-0.02 0.04,0.04 0.01,0.12 -0.05,0.17 -0.07,0.05 -0.15,0.06 -0.18,0.02z"/>
    <path class="fil3" d="M0.43 3.48c0.07,-0.05 0.15,-0.06 0.18,-0.02 0.01,0 0.01,0.01 0.01,0.01l0 0 0.08 0.16 0.87 0.9c0,0 0,0 0,0l0 0 0 0c0,0 0.01,0 0.01,0.01 0.09,0.11 0.02,0.33 -0.17,0.49 -0.18,0.15 -0.41,0.18 -0.51,0.06 -0.01,-0.01 -0.02,-0.03 -0.03,-0.05l0 0 0 0c0,0 0,-0.01 0,-0.02l-0.4 -1.2 -0.1 -0.17c-0.03,-0.04 0,-0.12 0.06,-0.17z"/>
    <path class="fil3" d="M0.37 3.66c-0.03,-0.05 0,-0.12 0.06,-0.18 0.07,-0.05 0.15,-0.06 0.18,-0.02 0.04,0.04 0.01,0.12 -0.06,0.17 -0.06,0.06 -0.14,0.07 -0.18,0.03z"/>
    <path class="fil5" d="M3.31 1.9c0.09,-0.09 0.12,-0.17 0.13,-0.2 0.02,-0.03 0.03,-0.02 0.06,0.1 0.03,0.12 0.04,0.24 0.04,0.24l-0.23 -0.14z"/>
    <path class="fil5" d="M1.3 2.28c-0.28,0.14 -0.45,0.4 -0.37,0.58 -0.05,-0.03 -0.09,-0.08 -0.11,-0.13 -0.13,-0.28 0.13,-0.66 0.57,-0.85 0.15,-0.07 0.3,-0.1 0.44,-0.11 -0.02,0 -0.04,0 -0.05,0.01 -0.32,0.08 -0.53,0.31 -0.48,0.5z"/>
    <path class="fil5" d="M0.47 4.2c0.02,-0.02 0.04,-0.04 0.06,-0.06 -0.03,-0.02 -0.05,-0.04 -0.06,-0.06 -0.23,-0.27 -0.06,-0.78 0.38,-1.14 0.03,-0.02 0.05,-0.04 0.08,-0.06 0.01,0.02 0.02,0.04 0.04,0.05 -0.21,0.16 -0.32,0.38 -0.26,0.54 -0.22,0.15 -0.34,0.36 -0.28,0.54 0.03,0.07 0.08,0.13 0.16,0.17 -0.25,0.21 -0.35,0.48 -0.25,0.67 -0.16,0.2 -0.21,0.41 -0.12,0.57 0.01,0.03 0.03,0.05 0.06,0.07 -0.28,-0.26 -0.19,-0.82 0.19,-1.29z"/>
    <path class="fil5" d="M3.07 4.59c0,0 -0.27,-0.23 -0.39,-0.44l0.16 -0.17 0.33 0.22 -0.1 0.39z"/>
    <path class="fil5" d="M2.47 4.13c-0.36,-0.04 -0.5,-0.33 -0.5,-0.33 0.11,0.15 0.24,0.25 0.49,0.26 0.05,0 0.13,0.08 0.01,0.07z"/>
    <path class="fil5" d="M0.76 3.64c0.35,-1.02 0.78,-1.56 0.78,-1.56 0,0 -0.4,0.63 -0.7,1.64l-0.08 -0.08z"/>
    <path class="fil5" d="M0.31 6.27c0,0 -0.01,-0.24 0.04,-0.72 0.03,-0.35 0.08,-0.67 0.14,-0.96 0,0 0,0 0,0l0.03 -0.1c0.01,-0.07 0.03,-0.14 0.05,-0.21l0.01 -0.05 -0.1 -0.46c0.15,0.26 0.49,0.84 0.57,1.15 0.06,0.22 -0.01,0.65 -0.31,0.69 -0.1,0.02 -0.18,-0.02 -0.24,-0.1 -0.04,0.57 -0.03,1.18 0.09,1.82 0.07,0.78 0.5,1.59 0.5,1.59 0,0 0.12,0.07 0.27,0 0.15,-0.07 -0.09,0.21 -0.09,0.21 0,0 -0.17,0.09 -0.26,-0.02 -0.09,-0.12 -0.42,-0.95 -0.55,-1.45 -0.12,-0.48 -0.17,-0.89 -0.15,-1.39z"/>
    <path class="fil5" d="M3.12 3c0.01,0 0.03,-0.01 0.05,-0.01 0.02,0 0.03,-0.01 0.05,-0.01 0.02,-0.01 0.03,-0.01 0.05,-0.01 0.02,-0.01 0.03,-0.01 0.05,-0.01l0.03 -0.01 0.01 0 0.01 0c0.02,-0.01 0.03,-0.01 0.05,-0.01 0.02,0 0.03,-0.01 0.05,-0.01l0.03 0c0.01,0 0.01,-0.01 0.02,-0.01 0.07,-0.01 0.14,-0.01 0.21,-0.02 0.03,0 0.06,-0.01 0.1,-0.01l0.1 0c-0.06,-0.03 -0.13,-0.04 -0.21,-0.05 -0.07,0 -0.14,0 -0.21,0.01 -0.01,0 -0.02,0 -0.02,0.01l-0.03 0 -0.03 0.01c-0.01,0 -0.01,0 -0.02,0 -0.04,0.01 -0.07,0.02 -0.1,0.03 -0.07,0.03 -0.14,0.06 -0.19,0.1z"/>
    <path class="fil5" d="M2.89 2.11c-0.14,-0.03 -0.24,-0.11 -0.22,-0.18 0,0 0.19,-0.66 0.39,-1.18 -0.08,0.26 -0.27,1.07 -0.29,1.16 -0.02,0.09 0.15,0.17 0.31,0.19 -0.05,0.02 -0.12,0.02 -0.19,0.01z"/>
    <path class="fil5" d="M1.58 4.51l-0.86 -0.9 0.01 0.01 -0.08 -0.16c-0.01,-0.02 -0.03,-0.02 -0.04,-0.01 0,0 0,0 -0.01,0l0 0 0 0 0.05 0.01c-0.01,0 -0.01,-0.01 -0.01,-0.01 0,0 0,-0.01 0,-0.01l-0.01 0c-0.01,-0.01 -0.01,-0.02 -0.02,-0.02 -0.02,-0.01 -0.03,-0.01 -0.05,-0.01 -0.03,-0.01 -0.06,0 -0.09,0.01 -0.02,0.02 -0.05,0.03 -0.07,0.05 -0.02,0.02 -0.04,0.04 -0.05,0.07 -0.01,0.01 -0.01,0.02 -0.02,0.04 0,0.01 0,0.03 0,0.05 0,0.01 0,0.02 0.01,0.02 0,0.01 0,0.01 0,0.01l0 0 0 0.01 0.01 0 0.02 0.04c0.02,0.04 0.05,0.08 0.07,0.13l0 -0.01 0.4 1.2c0.01,0.01 0.02,0.02 0.03,0.02 0.02,-0.01 0.02,-0.02 0.02,-0.03l-0.39 -1.21c0,0 0,0 0,-0.01l0 0c-0.03,-0.04 -0.05,-0.08 -0.08,-0.13l-0.02 -0.03 0 -0.01 0 0 0 0c-0.01,0 -0.01,0 -0.01,0 0,0 0,-0.01 0,-0.01 0,-0.02 0,-0.04 0.01,-0.05 0.02,-0.04 0.06,-0.07 0.1,-0.09 0.02,-0.01 0.04,-0.02 0.06,-0.01 0.01,0 0.01,0 0.02,0 0,0 0.01,0.01 0.01,0.01l0 0c0,0 0,0 0,0 0,0 0,0 0,0.01l0 0c0.01,0.01 0.03,0.02 0.04,0.01 0,0 0.01,0 0.01,0l0 0 -0.05 -0.01 0.09 0.15 0 0c0,0.01 0,0.01 0,0.01l0.87 0.89c0.01,0.01 0.02,0.01 0.03,0 0.01,-0.01 0.01,-0.02 0,-0.03z"/>
    <path class="fil5" d="M0.43 3.48c0.07,-0.05 0.15,-0.06 0.18,-0.02 0.02,0.02 0.05,0.08 0.06,0.09 0.03,0.04 0.01,0.12 -0.06,0.17 -0.06,0.05 -0.15,0.06 -0.18,0.02 -0.01,-0.01 -0.05,-0.07 -0.06,-0.08 -0.03,-0.04 0,-0.12 0.06,-0.18z"/>
    <path class="fil5" d="M2.91 3.98l-0.3 0.36c0.08,0.19 0.21,0.38 0.35,0.58l0.18 -0.78c-0.07,-0.05 -0.15,-0.1 -0.23,-0.16zm-0.02 -0.11c0.13,0.09 0.23,0.17 0.34,0.24l-0.23 0.98c-0.01,0.01 -0.01,0.01 -0.01,0.02l0 0c-0.18,-0.27 -0.37,-0.52 -0.47,-0.78l0.37 -0.46z"/>
    <path class="fil5" d="M4.87 4.05c0,0 -0.37,0.39 -0.87,0.25 -0.51,-0.15 -1.98,-1.15 -1.98,-1.15 0,0 1.21,1.16 1.96,1.31 0.58,0.07 0.89,-0.41 0.89,-0.41z"/>
    <path class="fil5" d="M3.29 0.26c-0.01,0 -0.02,0.01 -0.03,0.02 -0.17,0.33 -0.4,1.04 -0.52,1.41 -0.14,-0.04 -0.26,-0.06 -0.37,-0.06 -0.01,0 -0.02,0 -0.03,0 -0.01,-0.06 0,-0.12 0,-0.17 0.01,-0.02 -0.01,-0.04 -0.04,-0.04 0,0 -0.01,0 -0.02,0 -0.08,0.05 -0.25,0.16 -0.44,0.35 -0.15,0 -0.3,0.04 -0.45,0.11 -0.44,0.19 -0.7,0.57 -0.57,0.85 0.02,0.05 0.06,0.1 0.12,0.14 -0.03,0.02 -0.06,0.05 -0.09,0.07 -0.44,0.36 -0.61,0.87 -0.38,1.14 0.01,0.02 0.03,0.04 0.06,0.06 -0.02,0.02 -0.04,0.04 -0.06,0.06 -0.4,0.48 -0.47,1.07 -0.17,1.32 0.02,0.01 0.03,0.02 0.05,0.03 -0.03,0.23 -0.04,0.47 -0.04,0.72 -0.2,0.02 -0.34,0.11 -0.37,0.24 0,0.02 0,0.04 0,0.06 -0.17,0.1 -0.27,0.25 -0.23,0.38 0.01,0.03 0.04,0.06 0.06,0.09 -0.13,0.18 -0.15,0.39 -0.04,0.49 0.04,0.04 0.1,0.06 0.16,0.06 0.04,0 0.09,-0.01 0.14,-0.03 0.04,0.13 0.13,0.21 0.23,0.22 0,0 0,0 0.01,0 0.07,0 0.14,-0.05 0.19,-0.12 0.12,0.44 0.29,0.91 0.55,1.36l0 0.05c0,0.04 0.06,0.06 0.14,0.06 0.01,0 0.01,0 0.02,0 0.08,0 0.15,-0.03 0.15,-0.07l0 -0.06c0.16,-0.3 0.27,-0.62 0.34,-0.92 0.07,0.01 0.14,0.02 0.21,0.02 0.05,0.34 0.14,0.65 0.25,0.88l0.01 0.05c0,0.03 0.06,0.06 0.14,0.06 0,0 0.01,0 0.01,0 0.09,-0.01 0.16,-0.04 0.16,-0.08l-0.01 -0.04c0.57,-0.71 0.97,-1.53 1.05,-2.21 0.02,-0.1 0.03,-0.21 0.02,-0.32 0,0 0,-0.01 0,-0.01 -0.03,-1.05 -0.88,-1.56 -1.02,-2.26 -0.01,-0.04 -0.01,-0.08 -0.02,-0.11 0,0 0.1,-0.02 0.07,-0.1 0,-0.01 0,-0.01 -0.01,-0.01 0,0 0,0 0,0 -0.02,0 -0.04,0 -0.07,0 0,0 0,0 0,0 0.01,-0.16 0.1,-0.3 0.12,-0.33 0.68,0.56 1.14,0.81 1.53,0.81 0.17,0 0.32,-0.04 0.47,-0.13 0.68,-0.39 0.38,-1.13 -0.66,-1.93 -0.15,-0.11 -0.28,-0.21 -0.41,-0.29 -0.09,-0.06 -0.2,-0.13 -0.31,-0.19 0,-0.03 0.01,-0.08 0.01,-0.1 0.06,-0.39 0.15,-1.12 0.12,-1.5 -0.01,-0.02 -0.02,-0.03 -0.03,-0.03zm0 -0.08c0.05,0 0.1,0.04 0.11,0.1 0.03,0.39 -0.06,1.12 -0.12,1.52 0,0.01 0,0.03 0,0.05 0.09,0.05 0.19,0.11 0.27,0.16 0.13,0.09 0.26,0.19 0.41,0.3 0.35,0.27 0.62,0.53 0.79,0.78 0.19,0.26 0.28,0.5 0.26,0.71 0,0.12 -0.04,0.22 -0.11,0.32 -0.07,0.09 -0.16,0.18 -0.29,0.25 -0.17,0.09 -0.33,0.14 -0.51,0.14 -0.38,0 -0.82,-0.22 -1.51,-0.77 -0.01,0.04 -0.03,0.08 -0.05,0.13 0.03,0.01 0.06,0.03 0.07,0.06 0.02,0.06 0,0.1 -0.01,0.12 -0.02,0.02 -0.03,0.04 -0.05,0.05 0,0.02 0,0.04 0.01,0.05 0.05,0.28 0.23,0.53 0.41,0.8 0.28,0.39 0.59,0.84 0.61,1.47 0,0.01 0,0.01 0,0.01 0,0 0,0.01 0,0.01 0.01,0.11 0,0.22 -0.02,0.33 -0.04,0.34 -0.16,0.73 -0.35,1.12 -0.18,0.38 -0.42,0.76 -0.7,1.1l0.01 0.02c0,0.03 -0.01,0.09 -0.09,0.12 -0.04,0.02 -0.09,0.03 -0.14,0.04 -0.01,0 -0.02,0 -0.02,0 -0.05,0 -0.1,-0.01 -0.13,-0.03 -0.08,-0.03 -0.09,-0.09 -0.09,-0.11l0 -0.03c-0.11,-0.21 -0.19,-0.49 -0.25,-0.82 -0.03,0 -0.05,-0.01 -0.08,-0.01 -0.07,0.29 -0.18,0.58 -0.32,0.85l0 0.04c0,0.02 -0.01,0.08 -0.09,0.12 -0.04,0.02 -0.09,0.03 -0.14,0.03 0,0 -0.01,0 -0.02,0 -0.05,0 -0.09,-0.01 -0.13,-0.02 -0.08,-0.03 -0.09,-0.09 -0.09,-0.11l0 -0.04c-0.21,-0.38 -0.39,-0.8 -0.51,-1.23 -0.05,0.03 -0.1,0.05 -0.15,0.05 -0.01,0 -0.01,0 -0.02,0 -0.11,-0.01 -0.2,-0.08 -0.27,-0.21 -0.03,0.01 -0.06,0.01 -0.09,0.01 -0.08,0 -0.16,-0.02 -0.21,-0.07 -0.13,-0.12 -0.13,-0.34 -0.01,-0.55 -0.01,-0.02 -0.02,-0.04 -0.03,-0.07 -0.03,-0.08 -0.02,-0.18 0.04,-0.26 0.04,-0.07 0.1,-0.14 0.18,-0.19 0,-0.01 0,-0.01 0,-0.02 0.02,-0.09 0.07,-0.16 0.16,-0.22 0.06,-0.04 0.13,-0.06 0.21,-0.08 0,-0.2 0.01,-0.41 0.03,-0.61 0,-0.01 -0.01,-0.01 -0.01,-0.01 -0.09,-0.07 -0.15,-0.17 -0.18,-0.28 -0.03,-0.11 -0.04,-0.23 -0.02,-0.36 0.03,-0.27 0.16,-0.54 0.36,-0.79 0,0 0,-0.01 0.01,-0.01 -0.01,0 -0.01,-0.01 -0.01,-0.01 -0.07,-0.08 -0.11,-0.18 -0.12,-0.29 -0.01,-0.1 0.01,-0.21 0.05,-0.33 0.07,-0.22 0.24,-0.45 0.46,-0.63 0,-0.01 0.01,-0.01 0.01,-0.01 -0.03,-0.04 -0.05,-0.07 -0.07,-0.11 -0.07,-0.16 -0.04,-0.35 0.09,-0.53 0.11,-0.17 0.3,-0.32 0.52,-0.42 0.15,-0.07 0.31,-0.11 0.45,-0.12 0.23,-0.21 0.4,-0.31 0.44,-0.34 0.02,-0.01 0.04,-0.01 0.06,-0.01 0.04,0 0.07,0.01 0.09,0.04 0.03,0.02 0.04,0.06 0.03,0.09 0,0.02 0,0.05 0,0.09 0.08,0 0.17,0.01 0.27,0.04 0.12,-0.4 0.34,-1.05 0.5,-1.36 0.02,-0.04 0.06,-0.06 0.1,-0.06z"/>
    <path class="fil5" d="M2.34 1.57l0 0.01 0 0c0,0 0,0.01 0,0.01 0,0.01 0,0.01 0,0.02 0,0.01 0,0.03 0,0.04 0,0.02 0.01,0.05 0.01,0.07 0.01,0.03 0.01,0.05 0.02,0.08 0.01,0.02 0.03,0.04 0.04,0.06 0.01,0.02 0.02,0.02 0.04,0.01 0.01,0 0.01,-0.02 0.01,-0.03l0 0c-0.01,-0.02 -0.02,-0.04 -0.03,-0.06 0,-0.03 -0.01,-0.05 -0.01,-0.07 -0.01,-0.02 -0.01,-0.04 -0.01,-0.07 0,-0.01 0,-0.02 0,-0.03 0,0 0,-0.01 0,-0.01 0.01,-0.01 0.01,-0.01 0.01,-0.01l0 -0.01c0,0 0,0 0,0 0,-0.02 -0.01,-0.04 -0.03,-0.05 -0.02,0 -0.04,0.01 -0.05,0.03 0,0 0,0 0,0.01l0 0z"/>
    <path class="fil5" d="M3.43 1.62c-0.02,0 -0.05,0.01 -0.05,0.04 -0.03,0.06 -0.06,0.13 -0.11,0.19 0.16,0.08 0.3,0.18 0.3,0.18 0,-0.12 -0.05,-0.27 -0.09,-0.38 -0.01,-0.02 -0.03,-0.03 -0.05,-0.03zm0 -0.08c0.06,0 0.11,0.03 0.13,0.09 0.05,0.16 0.09,0.29 0.09,0.4 0.01,0.02 0,0.04 -0.02,0.06 -0.01,0.01 -0.03,0.02 -0.06,0.02 -0.02,0 -0.03,-0.01 -0.05,-0.02 -0.04,-0.03 -0.16,-0.1 -0.28,-0.17 -0.03,-0.02 -0.04,-0.04 -0.04,-0.06 -0.01,-0.02 0,-0.05 0.01,-0.06 0.04,-0.05 0.07,-0.11 0.09,-0.17 0.02,-0.06 0.07,-0.09 0.13,-0.09z"/>
    <path class="fil5" d="M2.27 1.57c0.01,0.08 0.05,0.2 0.08,0.27 0,0.02 -0.01,0.04 -0.03,0.04 -0.06,0.01 -0.18,0.02 -0.29,0.06 -0.03,0.02 -0.06,-0.02 -0.04,-0.05 0.05,-0.09 0.13,-0.22 0.23,-0.34 0.02,-0.02 0.05,-0.01 0.05,0.02z"/>
    <path class="fil5" d="M3.65 1.98c0,0 0.02,0.14 0.01,0.15 0,0.02 -0.05,-0.05 -0.05,-0.05l0.04 -0.1z"/>
    <path class="fil5" d="M4.41 3.82c-0.02,-0.03 -0.01,-0.07 0.02,-0.09 0.03,-0.03 0.08,-0.03 0.1,0 0.02,0.02 0.01,0.06 -0.03,0.09 -0.03,0.02 -0.07,0.02 -0.09,0z"/>
    <path class="fil5" d="M4.04 3.86c-0.04,-0.01 -0.07,-0.05 -0.06,-0.08 0.01,-0.03 0.05,-0.04 0.09,-0.03 0.04,0.02 0.07,0.05 0.06,0.08 -0.01,0.03 -0.05,0.04 -0.09,0.03z"/>
    <path class="fil5" d="M3.59 2.57c0,-0.07 0.04,-0.13 0.1,-0.13 0.05,0 0.1,0.06 0.1,0.13 0,0.07 -0.04,0.13 -0.09,0.13 -0.06,0 -0.1,-0.05 -0.11,-0.13z"/>
    <path class="fil5" d="M2.89 2.64c0,-0.07 0.04,-0.13 0.1,-0.13 0.05,-0.01 0.1,0.05 0.1,0.12 0.01,0.07 -0.04,0.13 -0.09,0.13 -0.06,0.01 -0.1,-0.05 -0.11,-0.12z"/>
    <path class="fil4" d="M3.52 1.95c0.03,-0.01 0.07,-0.02 0.1,-0.02 0.04,0 0.07,0 0.1,0.01 0.04,0.02 0.07,0.04 0.09,0.06 0.03,0.03 0.05,0.06 0.06,0.09l0 0.01c0.01,0.01 0.03,0.01 0.04,0.01 0.01,-0.01 0.02,-0.02 0.01,-0.03 -0.01,-0.04 -0.03,-0.09 -0.06,-0.12 -0.02,-0.04 -0.06,-0.07 -0.1,-0.09 -0.04,-0.02 -0.09,-0.04 -0.13,-0.04 -0.05,-0.01 -0.1,0 -0.14,0.01 -0.04,0 -0.06,0.04 -0.05,0.07 0.01,0.03 0.04,0.05 0.07,0.04 0,0 0.01,0 0.01,0l0 0z"/>
    <path class="fil4" d="M2.96 1.91c-0.04,-0.02 -0.09,-0.02 -0.14,-0.02 -0.04,0.01 -0.09,0.02 -0.13,0.04 -0.04,0.02 -0.08,0.05 -0.11,0.08 -0.03,0.03 -0.05,0.07 -0.07,0.11 -0.01,0.01 0,0.02 0.01,0.03 0.01,0.01 0.03,0 0.04,-0.01l0 0c0.02,-0.03 0.04,-0.06 0.07,-0.08 0.03,-0.02 0.06,-0.04 0.09,-0.05 0.04,-0.01 0.07,-0.02 0.1,-0.02 0.04,0.01 0.07,0.01 0.1,0.03 0.03,0.01 0.07,0 0.08,-0.03 0.01,-0.03 0,-0.07 -0.03,-0.08 0,0 -0.01,0 -0.01,0l0 0z"/>
   </g>
  </g>
  <path class="fil8" d="M2.88 5.75c-1.59,0 -2.88,-1.29 -2.88,-2.88 0,-1.58 1.29,-2.87 2.88,-2.87 1.6,0 2.89,1.29 2.89,2.87 0,1.59 -1.29,2.88 -2.89,2.88z"/>
 </g>
</svg>
