<svg width="159" height="38" viewBox="0 0 159 38" fill="none" xmlns="http://www.w3.org/2000/svg">
<rect x="0.554688" width="38" height="37.863" rx="18.9315" fill="#432C42"/>
<path d="M19.6235 36.4363C9.95884 36.4363 2.12404 28.6297 2.12404 18.9999C2.12404 9.37002 9.95884 1.56348 19.6235 1.56348C29.2883 1.56348 37.123 9.37002 37.123 18.9999C37.123 28.6297 29.2883 36.4363 19.6235 36.4363Z" fill="#FF2773"/>
<mask id="mask0" mask-type="alpha" maskUnits="userSpaceOnUse" x="2" y="1" width="36" height="36">
<path d="M19.6235 36.4363C9.95884 36.4363 2.12404 28.6297 2.12404 18.9999C2.12404 9.37002 9.95884 1.56348 19.6235 1.56348C29.2883 1.56348 37.123 9.37002 37.123 18.9999C37.123 28.6297 29.2883 36.4363 19.6235 36.4363Z" fill="#FF2773"/>
</mask>
<g mask="url(#mask0)">
<path d="M27.9064 39.2653C32.5182 36.826 35.1942 30.3016 33.3439 25.6216C31.4937 20.9416 25.1167 18.1045 20.5049 15.2255C15.8931 12.3606 13.0461 9.43903 8.18517 7.43204C3.32429 5.42505 -3.56498 4.31896 -5.85656 7.19793C-8.1552 10.0699 -5.87068 16.9272 -4.62526 22.5367C-3.37983 28.1461 -3.1735 32.5212 -0.874466 34.9679C1.42418 37.4001 5.80847 37.911 11.2742 38.9885C16.747 40.0595 23.2946 41.7045 27.9064 39.2653Z" fill="#6D00B0"/>
<path d="M21.5776 13.5436C22.1751 13.1453 22.5089 12.5137 22.6921 11.9894C22.7884 11.7148 23.1759 11.7109 23.2765 11.9837C23.5897 12.8345 23.955 14.0815 23.7323 14.8037C23.3706 15.9756 20.4031 14.3264 21.5776 13.5436Z" fill="#F9F9F9"/>
<path d="M22.2817 22.3372C21.8915 22.0683 21.4383 22.0474 21.2695 22.291C21.2546 22.3124 21.2437 22.335 21.2341 22.3586L21.2332 22.3581L20.8517 23.2686L16.4718 28.6226C16.4692 28.6256 16.467 28.6287 16.4644 28.6317L16.4596 28.6378H16.46C16.4469 28.6544 16.4333 28.6714 16.4211 28.6893C15.943 29.3783 16.4508 30.5538 17.5553 31.3153C18.6602 32.0767 19.9437 32.1355 20.4218 31.4464C20.4795 31.3632 20.5228 31.2725 20.5525 31.1762H20.553L20.5539 31.1727C20.5652 31.1352 20.574 31.0969 20.5814 31.0581L22.2274 24.2157L22.7104 23.2163C22.828 22.9701 22.6474 22.5891 22.2817 22.3372Z" fill="#F9F9F9"/>
<path d="M8.47095 17.9327C7.79062 16.4155 9.21148 14.3074 11.6445 13.2243C14.0776 12.1412 16.6015 12.4932 17.2818 14.0105C17.9622 15.5278 16.5413 17.6358 14.1082 18.7189C11.6752 19.802 9.15128 19.45 8.47095 17.9327Z" fill="#FF2773"/>
<path d="M6.53025 25.4415C5.28455 23.9291 6.24076 21.0954 8.666 19.1122C11.0912 17.1289 14.0671 16.7473 15.3128 18.2596C16.5585 19.772 15.6023 22.6058 13.1771 24.589C10.7518 26.5722 7.77595 26.9539 6.53025 25.4415Z" fill="#FF2773"/>
<path d="M5.61093 33.4237C3.93726 32.059 4.35455 28.7926 6.54298 26.128C8.73142 23.4633 11.8623 22.4095 13.5359 23.7742C15.2096 25.1388 14.7923 28.4052 12.6039 31.0699C10.4155 33.7345 7.28461 34.7884 5.61093 33.4237Z" fill="#FF2773"/>
<path d="M5.65196 39.3102C5.65152 39.2993 5.65153 39.2879 5.65109 39.277C5.65021 39.2596 5.64934 39.2422 5.64846 39.2243C5.64803 39.1964 5.64759 39.1685 5.64715 39.1402C5.64627 39.1001 5.64584 39.0604 5.6454 39.0208C5.5566 33.6611 6.38071 28.8062 7.57094 24.7777C9.16623 19.378 17.2533 21.6466 17.6186 25.3949C18.0258 29.5742 23.2172 32.4068 23.3821 38.4956C23.3834 38.5252 23.3856 38.5544 23.3869 38.584C23.5881 43.4638 19.7812 47.5821 14.8838 47.7826C11.2046 47.933 7.95719 45.83 6.48351 42.7054C6.10601 41.9754 5.83306 41.0897 5.71014 40.0236C5.68171 39.7887 5.66202 39.5507 5.65196 39.3102Z" fill="#F9F9F9"/>
<path d="M15.7371 52.6546C13.854 49.044 13.4778 41.5714 14.4681 37.7403C15.7734 32.691 23.0425 33.9916 23.3539 38.1195C23.6654 42.2474 21.2477 47.8895 17.454 52.6058C16.9986 53.1279 15.9072 52.9806 15.7371 52.6546Z" fill="#F9F9F9"/>
<path d="M11.2548 52.81C14.3745 46.804 14.319 40.6137 12.4625 37.3361C10.6061 34.0581 5.78437 35.1904 5.64701 38.679C5.50966 42.1675 6.66359 47.8405 9.53834 52.8802C9.78417 53.2986 11.079 53.1487 11.2548 52.81Z" fill="#F9F9F9"/>
<path d="M17.5657 24.9973C17.4988 23.8584 18.2441 22.8682 18.2441 22.8682C18.2441 22.8682 15.8685 21.0172 15.1459 19.8286C14.4232 18.64 13.8021 19.9084 13.9478 21.0211C14.0934 22.1338 14.8729 25.1076 17.5657 24.9973Z" fill="#1E1524"/>
<path d="M7.58511 24.7269C9.37418 18.7519 11.9222 14.5934 13.4615 13.3168C16.0528 11.1672 19.0793 10.9297 25.6595 15.972C31.437 20.3994 33.1058 24.5377 29.3378 26.6716C25.9709 28.5785 22.598 26.8399 15.1394 20.2769C13.3093 18.666 14.2571 25.1915 17.9337 24.7339C17.9648 24.7299 17.9941 24.7487 18.0037 24.7783C18.1406 25.2129 17.6104 25.3166 17.6104 25.3166C18.9603 31.7283 5.6377 31.2297 7.58511 24.7269Z" fill="#F9F9F9"/>
<path d="M12.303 14.5749C14.1419 12.3307 15.8903 11.106 16.6247 10.6941C16.7831 10.6052 16.9751 10.7324 16.955 10.9124C16.8955 11.4389 16.8618 12.356 17.21 13.0485C18.3031 15.2195 10.4124 16.8827 12.303 14.5749Z" fill="#F9F9F9"/>
<path d="M18.7462 13.4995C18.7462 13.4995 20.7483 6.87723 22.0488 4.33145C22.1236 4.185 22.3454 4.22815 22.3589 4.39247C22.6008 7.35143 21.5313 14.0757 21.5313 14.0757C21.4513 14.4605 20.7628 14.6436 19.9933 14.4845C19.2243 14.3254 18.6662 13.8844 18.7462 13.4995Z" fill="#FCDA12"/>
<path d="M10.0109 39.2494C10.1561 42.7728 13.0886 45.5143 16.5604 45.3722C20.0323 45.2301 22.5243 42.048 22.4959 38.5215C22.463 34.4564 18.8092 28.5772 15.3374 28.7193C11.8656 28.8614 9.86565 35.7256 10.0109 39.2494Z" fill="white"/>
<path d="M6.54765 24.0122C6.36435 23.7897 6.50506 23.3727 6.86193 23.0809C7.21879 22.7891 7.65668 22.7329 7.83998 22.9555C8.02328 23.178 7.88258 23.595 7.52571 23.8868C7.16884 24.1786 6.73095 24.2348 6.54765 24.0122Z" fill="#FF2773"/>
<path d="M6.33758 22.1447C6.70414 21.8449 7.15425 21.7873 7.34235 22.0157C7.35853 22.0358 7.37165 22.0576 7.38303 22.0802L7.3839 22.0798L7.83882 22.9563L12.6457 27.9341C12.6483 27.9367 12.6514 27.9398 12.654 27.9428L12.6592 27.9485H12.6588C12.6732 27.9642 12.6881 27.9799 12.7017 27.9964C13.2349 28.6441 12.8255 29.8575 11.7875 30.7065C10.749 31.5555 9.47479 31.719 8.94157 31.0718C8.87683 30.9933 8.82653 30.9066 8.78891 30.8133H8.78847L8.78716 30.8098C8.77272 30.7736 8.76091 30.7362 8.75042 30.6978L6.54667 24.0128L5.98327 23.0561C5.84548 22.8199 5.9942 22.4258 6.33758 22.1447Z" fill="#F9F9F9"/>
<path d="M6.01505 23.1002C5.82669 22.8715 5.97117 22.4431 6.33774 22.1434C6.70432 21.8436 7.15419 21.786 7.34254 22.0146C7.5309 22.2433 7.38642 22.6717 7.01985 22.9715C6.65327 23.2713 6.2034 23.3289 6.01505 23.1002Z" fill="#F9F9F9"/>
<path opacity="0.08" d="M22.3383 13.3573C22.8452 12.8522 22.9695 12.3776 23.0526 12.2259C23.1357 12.0742 23.2105 12.1099 23.385 12.7916C23.5595 13.4733 23.5762 14.1188 23.5762 14.1188L22.3383 13.3573Z" fill="#1E1524"/>
<path opacity="0.14" d="M11.1687 15.4678C9.57821 16.2606 8.66618 17.6645 9.09005 18.7044C8.81972 18.4956 8.60757 18.2385 8.47065 17.9334C7.79046 16.4162 9.21122 14.308 11.6442 13.2249C12.4757 12.8549 13.3182 12.6522 14.0938 12.6064C13.9966 12.6269 13.8991 12.6496 13.8011 12.6757C12.0715 13.1417 10.9019 14.386 11.1687 15.4678Z" fill="#1E1524"/>
<path opacity="0.14" d="M6.54135 26.1309C6.64415 26.0058 6.74913 25.8842 6.85586 25.7661C6.73688 25.6702 6.62753 25.5625 6.52911 25.4431C5.28332 23.9307 6.23953 21.0973 8.66461 19.1142C8.8129 18.9926 8.96381 18.8775 9.11604 18.7686C9.16984 18.8832 9.23851 18.9882 9.32031 19.0837C8.16682 19.9759 7.56624 21.1574 7.85713 22.0941C6.6354 22.9196 5.98495 24.0846 6.33358 25.0461C6.4788 25.4466 6.78019 25.7635 7.18787 25.9871C5.84322 27.173 5.25401 28.6972 5.84716 29.7576C4.95831 30.8232 4.64468 32.0257 5.15297 32.9031C5.2387 33.0508 5.34456 33.1833 5.46704 33.3001C3.96055 31.8693 4.41678 28.7181 6.54135 26.1309Z" fill="#1E1524"/>
<path opacity="0.08" d="M20.9839 28.2702C20.9839 28.2702 19.4923 27.0246 18.8479 25.8469L19.7228 24.8867L21.5508 26.0953L20.9839 28.2702Z" fill="#1E1524"/>
<path opacity="0.06" d="M17.6765 25.7128C15.6521 25.5175 14.8669 23.918 14.8669 23.918C15.4775 24.75 16.1879 25.2726 17.6104 25.3162C17.9035 25.3253 18.3462 25.7777 17.6765 25.7128Z" fill="#1E1524"/>
<path opacity="0.08" d="M8.14087 23.0183C10.0957 17.3466 12.4688 14.3711 12.4688 14.3711C12.4688 14.3711 10.2829 17.8505 8.57786 23.4707L8.14087 23.0183Z" fill="#1E1524"/>
<path opacity="0.08" d="M5.64203 37.6135C5.64203 37.6135 5.59741 36.2755 5.86205 33.6072C6.05189 31.6947 6.33841 29.9186 6.68703 28.2803C6.68441 28.2772 6.68178 28.2738 6.67916 28.2707L6.80339 27.7503C6.89262 27.3537 6.98536 26.9653 7.08115 26.5857L7.15245 26.2876L6.61486 23.7266C7.46084 25.1548 9.3457 28.4176 9.79494 30.1274C10.1191 31.3609 9.69345 33.7118 8.04261 33.9755C7.51726 34.0592 7.04179 33.8374 6.71109 33.4094C6.48013 36.5488 6.57374 39.9492 7.19357 43.5114C7.60169 47.8346 10.0045 52.3543 10.0045 52.3543C10.0045 52.3543 10.6593 52.7518 11.486 52.3543C12.3128 51.9568 11.0167 53.5185 11.0167 53.5185C11.0167 53.5185 10.0425 53.9936 9.53248 53.3725C9.02244 52.7514 7.19751 48.1035 6.4985 45.3341C5.83187 42.6933 5.52567 40.3829 5.64203 37.6135Z" fill="#1E1524"/>
<g opacity="0.08">
<path opacity="0.08" d="M21.2506 19.4512C21.3486 19.4351 21.4448 19.4164 21.5397 19.395C21.6347 19.3745 21.7274 19.3497 21.8228 19.3331C21.9172 19.314 22.0109 19.2943 22.104 19.2734C22.1963 19.2512 22.2917 19.2381 22.3844 19.2185L22.524 19.1906L22.5935 19.1758L22.6635 19.164C22.7571 19.1492 22.8498 19.1318 22.943 19.1148C23.0357 19.0973 23.1298 19.0856 23.223 19.0707L23.3625 19.0476C23.4089 19.0402 23.4561 19.0354 23.5029 19.0293C23.8765 18.9749 24.2522 18.9356 24.6306 18.9021C24.82 18.8846 25.0103 18.8716 25.2019 18.8567L25.7832 18.8201C25.4131 18.678 25.0195 18.617 24.6275 18.59C24.2343 18.5652 23.838 18.5787 23.4474 18.6362C23.3984 18.6436 23.3494 18.6493 23.3008 18.6576L23.1552 18.6846L23.0099 18.7138C22.9618 18.7234 22.9133 18.7325 22.8656 18.7465C22.6749 18.797 22.4841 18.8472 22.3 18.9182C21.9286 19.049 21.5743 19.229 21.2506 19.4512Z" fill="#1E1524"/>
</g>
<path opacity="0.06" d="M19.9947 14.4841C19.2257 14.325 18.6671 13.8839 18.7476 13.4991C18.7476 13.4991 19.8477 9.86017 20.9469 6.94043C20.4881 8.38788 19.4619 12.8771 19.3455 13.3801C19.2292 13.883 20.1762 14.3507 21.0742 14.4688C20.7899 14.5564 20.4036 14.5686 19.9947 14.4841Z" fill="#1E1524"/>
<path d="M12.7323 27.8499L7.95345 22.8459L7.98013 22.883L7.53002 22.0043C7.4889 21.9241 7.39048 21.8923 7.31043 21.9333C7.30431 21.9363 7.29819 21.9398 7.2925 21.9437L7.29031 21.9455L7.28944 21.9459L7.53002 22.0069C7.51996 21.9869 7.50771 21.9646 7.49284 21.9424C7.4854 21.9315 7.47666 21.9198 7.46791 21.9093L7.4421 21.8805C7.40623 21.843 7.36467 21.8121 7.32049 21.7877C7.23257 21.7389 7.13852 21.718 7.05016 21.7114C6.87213 21.7014 6.71072 21.7441 6.56419 21.8077C6.41765 21.8722 6.28599 21.9603 6.16919 22.0649C6.0524 22.1699 5.94961 22.2928 5.87262 22.4371C5.83413 22.509 5.80219 22.587 5.78076 22.6712C5.7602 22.7553 5.75014 22.8472 5.76326 22.9444C5.76982 22.9928 5.78295 23.0421 5.8035 23.09C5.80875 23.1018 5.814 23.114 5.82057 23.1253L5.82975 23.1427L5.83675 23.1549L5.863 23.2003L5.96841 23.3812C6.10883 23.6226 6.25099 23.8623 6.39359 24.1025L6.37828 24.068L8.62183 30.74C8.64545 30.8106 8.722 30.8485 8.79287 30.825C8.86285 30.8015 8.90091 30.7261 8.8786 30.6563L6.71466 23.9582C6.71116 23.9469 6.70635 23.936 6.70066 23.9264L6.69935 23.9242C6.5585 23.6832 6.41809 23.4426 6.27505 23.2029L6.16832 23.0229L6.14164 22.978L6.13551 22.9675L6.13245 22.9619C6.13026 22.9584 6.12851 22.9545 6.12676 22.9501C6.11933 22.934 6.11408 22.9152 6.11102 22.8947C6.09746 22.8115 6.12545 22.6995 6.17925 22.5984C6.28686 22.3931 6.48458 22.2144 6.70198 22.1154C6.81046 22.0662 6.92769 22.0379 7.03005 22.0431C7.08079 22.0462 7.12628 22.0575 7.16083 22.0762C7.17833 22.0858 7.1932 22.0967 7.20589 22.1093L7.21507 22.1194C7.2177 22.122 7.21945 22.1246 7.22164 22.1277C7.22601 22.1342 7.23126 22.1429 7.23695 22.1538L7.23782 22.1555C7.27894 22.2357 7.37736 22.2676 7.45741 22.2266C7.46397 22.2231 7.47141 22.2187 7.47753 22.2144L7.4784 22.214L7.23869 22.1551L7.69843 23.029L7.6993 23.0303C7.7063 23.0434 7.71549 23.0556 7.72511 23.0656L12.5587 28.0177C12.6055 28.0656 12.682 28.0665 12.7297 28.0199C12.7765 27.9737 12.7778 27.8978 12.7323 27.8499Z" fill="#1E1524"/>
<path d="M6.33783 22.1447C6.70439 21.8449 7.1545 21.7873 7.34259 22.0157C7.41827 22.1077 7.59892 22.4285 7.65754 22.4999C7.84607 22.7288 7.70128 23.1572 7.33472 23.4571C6.96816 23.7569 6.51805 23.8145 6.32995 23.5861C6.25428 23.4941 6.07362 23.1733 6.01501 23.1018C5.82692 22.873 5.97127 22.4446 6.33783 22.1447Z" fill="#1E1524"/>
<path d="M20.091 24.902L18.4498 26.9039C18.8767 27.98 19.5911 29.0212 20.3539 30.1135L21.3906 25.8069C20.9707 25.5318 20.5591 25.242 20.091 24.902ZM20.014 24.2988C20.717 24.8144 21.2808 25.2172 21.8945 25.6055L20.5818 31.0584C20.5744 31.0972 20.5656 31.1355 20.5543 31.173V31.1739C19.5198 29.6724 18.4739 28.3043 17.9463 26.8211L20.014 24.2988Z" fill="#1E1524"/>
<path opacity="0.08" d="M30.9688 25.2717C30.9688 25.2717 28.95 27.4762 26.1457 26.6721C23.3418 25.868 15.1397 20.2773 15.1397 20.2773C15.1397 20.2773 21.8935 26.758 26.0709 27.5817C29.2492 27.9535 30.9688 25.2717 30.9688 25.2717Z" fill="#1E1524"/>
<path d="M22.1936 4.24088C22.1371 4.24088 22.0803 4.26878 22.0488 4.33023C21.1083 6.17125 19.8008 10.144 19.1491 12.2025C18.4024 11.9741 17.7279 11.8695 17.1081 11.8695C17.0473 11.8695 16.9869 11.8704 16.927 11.8726C16.9042 11.5078 16.9265 11.1648 16.955 10.9124C16.9707 10.7729 16.8587 10.6653 16.7341 10.6653C16.6978 10.6653 16.6606 10.6744 16.6251 10.6945C16.1448 10.9643 15.2302 11.5814 14.1406 12.6044C13.3519 12.6445 12.4923 12.8476 11.6437 13.225C9.21079 14.3081 7.79003 16.4163 8.47023 17.9335C8.61633 18.2595 8.84816 18.5319 9.14561 18.7476C8.98376 18.8631 8.82367 18.9852 8.66576 19.1142C6.24068 21.0973 5.28447 23.9312 6.53025 25.4431C6.62867 25.5625 6.73803 25.6702 6.85701 25.7661C6.75027 25.8842 6.64529 26.0058 6.5425 26.1309C4.35406 28.7957 3.9372 32.0623 5.61078 33.427C5.69127 33.4928 5.77526 33.5525 5.86274 33.6074C5.7372 34.9028 5.66065 36.2399 5.64272 37.6137C4.57496 37.7196 3.75304 38.227 3.6065 38.9714C3.58682 39.0703 3.58026 39.1702 3.58551 39.2695C2.64461 39.8244 2.11489 40.6638 2.34585 41.3751C2.40883 41.5695 2.52388 41.7386 2.6796 41.8794C1.96047 42.9045 1.83756 44.0547 2.44733 44.6143C2.67785 44.8261 2.98492 44.9268 3.32962 44.9268C3.57239 44.9268 3.83353 44.8771 4.10036 44.7808C4.34663 45.4912 4.81511 45.9768 5.37195 46.0012C5.38639 46.0016 5.40082 46.0021 5.41569 46.0021C5.826 46.0021 6.20787 45.7493 6.49919 45.3343C7.13171 47.7803 8.12816 50.4072 9.53929 52.881L9.55198 53.1914C9.55985 53.3788 9.90542 53.5187 10.3407 53.5187C10.3682 53.5187 10.3966 53.5183 10.4251 53.517C10.8988 53.4973 11.2767 53.3204 11.2684 53.1212L11.2557 52.8109C12.1468 51.0954 12.7784 49.3651 13.1835 47.6914C13.5531 47.7472 13.9302 47.7794 14.3125 47.7882C14.6086 49.668 15.0819 51.3966 15.7385 52.6553L15.7503 52.9377C15.7582 53.1251 16.1037 53.265 16.539 53.265C16.5665 53.265 16.595 53.2646 16.6234 53.2633C17.0971 53.2441 17.4751 53.0667 17.4667 52.8675L17.4558 52.6069C20.6053 48.6917 22.8059 44.1388 23.2845 40.3435C23.3755 39.7725 23.4118 39.1845 23.3868 38.5848C23.3855 38.5552 23.3838 38.5255 23.382 38.4959C23.2246 32.6699 18.4649 29.8247 17.6977 25.9291C17.6841 25.7325 17.6557 25.5286 17.6115 25.3167C17.6115 25.3167 18.1417 25.213 18.0048 24.7785C17.996 24.7514 17.9707 24.7336 17.9431 24.7336C17.9405 24.7336 17.9378 24.7336 17.9348 24.734C17.8097 24.7497 17.6881 24.7567 17.5695 24.7567C17.5678 24.7567 17.5665 24.7567 17.5647 24.7567C17.5988 23.8362 18.1111 23.0586 18.2235 22.8991C22.016 25.984 24.5605 27.3996 26.7345 27.3996C27.646 27.3996 28.4925 27.1508 29.3384 26.6718C33.1064 24.5374 31.4376 20.3991 25.6601 15.9722C24.8518 15.3528 24.0972 14.8132 23.3903 14.3469C22.8812 13.9899 22.2452 13.612 21.649 13.2974C21.6778 13.0969 21.7137 12.8476 21.7321 12.7155C22.0291 10.5942 22.5334 6.51906 22.3593 4.39125C22.3515 4.2958 22.2727 4.24088 22.1936 4.24088ZM22.1936 3.7998C22.5133 3.7998 22.774 4.03865 22.8003 4.35507C22.9765 6.5086 22.4809 10.5554 22.1704 12.7761C22.1607 12.845 22.1463 12.9461 22.1306 13.055C22.6826 13.3575 23.2101 13.6813 23.6397 13.9825C24.3575 14.4563 25.1278 15.0081 25.9296 15.6222C27.8656 17.1058 29.3533 18.5598 30.3515 19.9449C31.3887 21.3836 31.8724 22.7156 31.7898 23.9033C31.7447 24.5483 31.5313 25.1446 31.1551 25.675C30.7815 26.2019 30.2435 26.6666 29.5572 27.0553C28.6237 27.584 27.7003 27.8412 26.7345 27.8412C24.5819 27.8412 22.131 26.5968 18.3433 23.5638C18.2427 23.7638 18.136 24.021 18.07 24.3086C18.237 24.3513 18.3731 24.4764 18.4265 24.646C18.5209 24.9458 18.4435 25.172 18.3617 25.3093C18.2926 25.4257 18.1999 25.5124 18.1058 25.5765C18.1194 25.675 18.1299 25.7726 18.1373 25.8694C18.4431 27.3822 19.422 28.7817 20.4583 30.2627C21.9906 32.4533 23.7272 34.9363 23.8247 38.478C23.8251 38.4867 23.8256 38.4959 23.826 38.5046C23.8273 38.5251 23.8282 38.5456 23.8291 38.5661C23.8545 39.181 23.8186 39.7995 23.7228 40.4049C23.4831 42.2991 22.8081 44.4478 21.7714 46.6192C20.7737 48.7091 19.4382 50.8265 17.9046 52.7525L17.9085 52.8488C17.9142 52.9817 17.8766 53.3138 17.4143 53.5313C17.203 53.6307 16.9283 53.6917 16.6413 53.7035C16.6072 53.7048 16.5726 53.7057 16.539 53.7057C16.2669 53.7057 16.0167 53.6617 15.8155 53.5788C15.3732 53.3967 15.3133 53.0824 15.3081 52.9556L15.3002 52.7699C14.7193 51.6228 14.2495 50.0559 13.9341 48.2136C13.7946 48.2048 13.6559 48.1935 13.5172 48.1787C13.0956 49.7935 12.4862 51.3826 11.7028 52.9089L11.7107 53.1029C11.7159 53.2358 11.6787 53.5679 11.2164 53.7854C11.0051 53.8848 10.7304 53.9458 10.4435 53.9576C10.4093 53.9589 10.3748 53.9598 10.3411 53.9598C10.069 53.9598 9.81881 53.9158 9.61716 53.8329C9.17492 53.6508 9.11499 53.3365 9.10974 53.2097L9.10143 53.0057C7.92389 50.9224 6.95236 48.5775 6.26954 46.1773C6.0049 46.3512 5.71489 46.4431 5.41569 46.4431C5.3947 46.4431 5.37414 46.4427 5.35271 46.4418C4.73331 46.4148 4.18915 46.0008 3.84402 45.3121C3.66818 45.3492 3.49627 45.3679 3.32918 45.3679C2.86157 45.3679 2.45301 45.2197 2.14682 44.939C1.43513 44.2861 1.43906 43.0771 2.12713 41.919C2.03921 41.7931 1.97141 41.6567 1.92417 41.5111C1.77195 41.0421 1.8485 40.5322 2.14594 40.0375C2.37341 39.6592 2.7181 39.3114 3.15115 39.0215C3.15639 38.9762 3.16295 38.9313 3.1717 38.8873C3.26619 38.4083 3.56539 37.9925 4.03649 37.6852C4.36237 37.4725 4.7613 37.3191 5.20617 37.2328C5.22979 36.0979 5.29409 34.9533 5.39776 33.8227C5.37501 33.8053 5.35271 33.7874 5.33039 33.7696C4.85142 33.379 4.5111 32.8556 4.3182 32.2136C4.13885 31.6169 4.09554 30.9435 4.18915 30.2122C4.3755 28.753 5.08937 27.2048 6.2 25.8528C6.21618 25.8332 6.23236 25.8136 6.24855 25.7944C6.22799 25.7713 6.20831 25.7478 6.18862 25.7243C5.82687 25.2854 5.61472 24.7514 5.55698 24.1373C5.50362 23.5685 5.58629 22.9557 5.80238 22.3159C6.23193 21.0432 7.14921 19.7854 8.38537 18.7742C8.40855 18.755 8.43217 18.7363 8.4558 18.7171C8.29526 18.5354 8.16491 18.334 8.06649 18.1143C7.6728 17.2366 7.83509 16.1918 8.52228 15.1715C9.16748 14.2144 10.2121 13.3806 11.4635 12.8232C12.278 12.4605 13.1354 12.2378 13.9542 12.1751C15.2 11.0249 16.1427 10.46 16.4077 10.3109C16.5079 10.2547 16.6208 10.2251 16.7341 10.2251C16.923 10.2251 17.1041 10.3061 17.2305 10.4474C17.3561 10.5873 17.416 10.7751 17.3946 10.963C17.3806 11.0872 17.3666 11.2506 17.3618 11.435C17.8412 11.4546 18.335 11.53 18.8564 11.6634C19.5677 9.43924 20.7645 5.87226 21.6542 4.13148C21.7588 3.92664 21.9652 3.7998 22.1936 3.7998Z" fill="#1E1524"/>
<path d="M16.9246 11.5082L16.922 11.5409L16.9202 11.5697C16.9193 11.5884 16.9185 11.6072 16.9185 11.625C16.9176 11.6616 16.918 11.6974 16.9185 11.7335C16.9206 11.805 16.9246 11.8761 16.9316 11.9467C16.9451 12.0879 16.9679 12.2274 17.0011 12.3642C17.0335 12.5015 17.0751 12.6362 17.128 12.7669C17.1778 12.8986 17.2435 13.0241 17.3117 13.1466C17.3528 13.2202 17.4464 13.2468 17.5208 13.2058C17.5908 13.1671 17.6183 13.0816 17.5864 13.0101L17.5829 13.0023C17.5322 12.889 17.4836 12.7744 17.4499 12.6549C17.4132 12.5368 17.3874 12.4152 17.3694 12.2927C17.3506 12.1707 17.341 12.0469 17.3401 11.924C17.3393 11.8626 17.341 11.8011 17.3445 11.7405C17.3471 11.7104 17.3489 11.6799 17.3524 11.6507C17.3537 11.6359 17.3554 11.6215 17.3576 11.6072L17.3607 11.5862C17.3616 11.5797 17.3629 11.5723 17.3638 11.5697C17.3957 11.4511 17.3253 11.3295 17.2063 11.2977C17.0873 11.2659 16.9653 11.3361 16.9333 11.4546C16.9298 11.4672 16.9276 11.4799 16.9263 11.4925L16.9246 11.5082Z" fill="#1E1524"/>
<path d="M22.9845 11.7809C22.862 11.7809 22.7391 11.8507 22.691 11.9893C22.5729 12.3266 22.3931 12.7084 22.1201 13.044C23.0177 13.5322 23.7841 14.087 23.7933 14.087C23.7513 13.4088 23.4998 12.5942 23.2749 11.9836C23.2255 11.848 23.1048 11.7809 22.9845 11.7809ZM22.9845 11.3398C23.3034 11.3398 23.5807 11.5329 23.6909 11.8315C24.0155 12.7128 24.1988 13.4624 24.2355 14.0595C24.2429 14.1811 24.1996 14.301 24.1157 14.3895C24.0321 14.4775 23.9157 14.5276 23.7937 14.5276C23.6542 14.5276 23.5789 14.4758 23.4648 14.3973C23.2561 14.2539 22.621 13.8181 21.9084 13.4306C21.7929 13.3678 21.7116 13.2576 21.6862 13.129C21.6608 13.0004 21.6936 12.8675 21.7763 12.7659C21.9793 12.5162 22.1464 12.2059 22.2732 11.8437C22.38 11.5377 22.659 11.3398 22.9845 11.3398Z" fill="#1E1524"/>
<path opacity="0.08" d="M16.5747 11.4975C16.6092 11.9739 16.8013 12.6473 16.9745 13.0252C17.0178 13.1202 16.9544 13.2296 16.8503 13.24C16.5025 13.2762 15.8206 13.3699 15.2279 13.5896C15.0559 13.6532 14.8985 13.4671 14.9895 13.3085C15.2948 12.7763 15.7025 12.0493 16.2777 11.396C16.3774 11.2835 16.5637 11.3476 16.5747 11.4975Z" fill="#1E1524"/>
<path d="M24.2077 13.7979C24.2077 13.7979 24.3075 14.5615 24.2887 14.6486C24.2698 14.7354 23.972 14.3505 23.972 14.3505L24.2077 13.7979Z" fill="#1E1524"/>
<path d="M28.4242 24.0039C28.3143 23.8647 28.3724 23.6364 28.5541 23.4939C28.7358 23.3515 28.9723 23.3489 29.0822 23.4881C29.1921 23.6274 29.134 23.8557 28.9523 23.9981C28.7706 24.1406 28.5341 24.1432 28.4242 24.0039Z" fill="#1E1524"/>
<path d="M26.3649 24.2434C26.1455 24.1709 26.0129 23.9758 26.0689 23.8077C26.1248 23.6395 26.348 23.5619 26.5675 23.6344C26.7869 23.7069 26.9195 23.9019 26.8636 24.0701C26.8076 24.2383 26.5844 24.3158 26.3649 24.2434Z" fill="#1E1524"/>
<path d="M23.8935 17.0904C23.8773 16.6965 24.1105 16.367 24.4144 16.3546C24.7183 16.3422 24.9778 16.6515 24.9941 17.0454C25.0103 17.4394 24.7771 17.7689 24.4732 17.7813C24.1692 17.7937 23.9097 17.4844 23.8935 17.0904Z" fill="#1E1524"/>
<path d="M20.0166 17.4479C20.0003 17.0539 20.2335 16.7244 20.5375 16.712C20.8414 16.6996 21.1009 17.0089 21.1171 17.4029C21.1333 17.7968 20.9001 18.1263 20.5962 18.1387C20.2923 18.1511 20.0328 17.8418 20.0166 17.4479Z" fill="#1E1524"/>
<path d="M23.4869 13.6205C23.6733 13.5533 23.8649 13.5076 24.0573 13.4989C24.2498 13.4897 24.4423 13.5185 24.6234 13.5895C24.8045 13.6601 24.9733 13.7726 25.1168 13.9164C25.2603 14.0602 25.3788 14.2346 25.461 14.4259L25.4628 14.4294C25.4938 14.5022 25.5783 14.5357 25.6513 14.5044C25.7182 14.476 25.7519 14.4028 25.7331 14.3348C25.6675 14.0973 25.5564 13.8715 25.4042 13.6706C25.2524 13.4701 25.0573 13.2949 24.8285 13.1676C24.6006 13.0395 24.3403 12.9623 24.0783 12.9388C23.8154 12.9144 23.5534 12.941 23.3015 12.9955C23.1243 13.0338 23.0123 13.2077 23.0508 13.3842C23.0893 13.5607 23.2638 13.6723 23.441 13.634C23.4546 13.6309 23.4681 13.627 23.4808 13.6226L23.4869 13.6205Z" fill="#FF2773"/>
<path d="M20.3822 13.3792C20.1338 13.3138 19.8726 13.2863 19.6154 13.3081C19.3582 13.3291 19.1063 13.4001 18.8805 13.513C18.6544 13.6259 18.4554 13.7802 18.2896 13.958C18.1234 14.1358 17.9899 14.3372 17.8872 14.5486C17.8526 14.6196 17.8823 14.7055 17.9536 14.7399C18.0188 14.7713 18.0967 14.7491 18.1356 14.6906L18.1365 14.6893C18.2533 14.515 18.3924 14.3594 18.5499 14.2321C18.7069 14.1049 18.8823 14.0055 19.066 13.944C19.2497 13.8822 19.4413 13.8577 19.629 13.8686C19.8171 13.8795 20.0012 13.9253 20.1762 13.9985C20.3433 14.0683 20.5353 13.9898 20.6053 13.8233C20.6753 13.6568 20.5966 13.4655 20.4295 13.3957C20.4159 13.3901 20.4019 13.3853 20.3883 13.3818L20.3822 13.3792Z" fill="#FF2773"/>
</g>
<path d="M51.398 12.9014H54.2378V20.8902C54.2378 22.2682 53.7815 23.3451 52.8691 24.1211C51.9628 24.8908 50.74 25.2756 49.2006 25.2756C47.6674 25.2756 46.4446 24.8908 45.5321 24.1211C44.6196 23.3451 44.1634 22.2682 44.1634 20.8902V12.9014H47.0032V20.8902C47.0032 21.6288 47.1925 22.1813 47.5712 22.5475C47.956 22.9137 48.5054 23.0969 49.2192 23.0969C50.6717 23.0969 51.398 22.3613 51.398 20.8902V12.9014ZM58.6046 12.8828L60.5785 16.9889L62.5897 12.8828H65.8578L62.3662 18.9256L66.1278 25.0801H62.6921L60.6157 20.8809L58.5394 25.0801H55.2713L58.856 18.9256L55.3644 12.8828H58.6046Z" fill="#6D00B0"/>
<path d="M74.2283 12.9014H77.0681V20.8902C77.0681 22.2682 76.6119 23.3451 75.6994 24.1211C74.7932 24.8908 73.5703 25.2756 72.0309 25.2756C70.4977 25.2756 69.2749 24.8908 68.3624 24.1211C67.45 23.3451 66.9937 22.2682 66.9937 20.8902V12.9014H69.8335V20.8902C69.8335 21.6288 70.0229 22.1813 70.4015 22.5475C70.7864 22.9137 71.3357 23.0969 72.0495 23.0969C73.502 23.0969 74.2283 22.3613 74.2283 20.8902V12.9014ZM89.1164 12.8828V25.0801H86.2952L81.826 17.3055L81.7794 17.3241V25.0801H78.9396V12.8828H81.7794L86.2394 20.6574L86.2952 20.6388V12.8828H89.1164ZM94.0605 12.8828V25.0801H91.23V12.8828H94.0605ZM105.671 20.8715C105.615 22.3116 105.19 23.4072 104.396 24.1583C103.607 24.9032 102.459 25.2756 100.951 25.2756C99.4422 25.2756 98.2163 24.8132 97.2728 23.8883C96.3355 22.9634 95.8668 21.7592 95.8668 20.2757V17.7245C95.8668 16.2409 96.32 15.0367 97.2262 14.1118C98.1325 13.1869 99.3305 12.7245 100.82 12.7245C102.316 12.7245 103.474 13.1063 104.293 13.8697C105.119 14.6332 105.584 15.7412 105.69 17.1937L105.671 17.2496H102.915C102.878 16.4302 102.698 15.8343 102.375 15.4619C102.052 15.0895 101.522 14.9033 100.783 14.9033C100.144 14.9033 99.6378 15.1578 99.2653 15.6668C98.8929 16.1757 98.7067 16.8554 98.7067 17.7058V20.2757C98.7067 21.1323 98.9084 21.8182 99.3119 22.3334C99.7216 22.8424 100.268 23.0969 100.951 23.0969C101.64 23.0969 102.127 22.9199 102.412 22.5661C102.704 22.2123 102.869 21.6288 102.906 20.8157H105.653L105.671 20.8715ZM114.386 20.0987V17.8827C114.386 16.9889 114.178 16.2689 113.762 15.7226C113.347 15.1764 112.766 14.9033 112.021 14.9033C111.276 14.9033 110.696 15.1764 110.28 15.7226C109.87 16.2627 109.666 16.9827 109.666 17.8827V20.0987C109.666 21.005 109.874 21.7313 110.289 22.2775C110.712 22.8237 111.292 23.0969 112.031 23.0969C112.775 23.0969 113.353 22.8237 113.762 22.2775C114.178 21.7313 114.386 21.005 114.386 20.0987ZM117.207 17.9014V20.0987C117.207 21.6133 116.729 22.8548 115.774 23.8231C114.824 24.7914 113.579 25.2756 112.04 25.2756C110.5 25.2756 109.25 24.7914 108.288 23.8231C107.325 22.8548 106.844 21.6133 106.844 20.0987V17.9014C106.844 16.9082 107.059 16.0206 107.487 15.2385C107.921 14.4501 108.533 13.8356 109.321 13.3949C110.116 12.948 111.019 12.7245 112.031 12.7245C113.564 12.7245 114.808 13.2087 115.764 14.177C116.726 15.1453 117.207 16.3868 117.207 17.9014ZM111.202 10.8158L112.85 8.18078H115.839L113.511 10.8158H111.202ZM121.891 25.0615H119.051V12.8642H123.744C125.165 12.8642 126.286 13.1901 127.105 13.8418C127.93 14.4936 128.343 15.3874 128.343 16.5234C128.343 17.771 127.685 18.6835 126.369 19.2608C127.102 19.4718 127.636 19.8194 127.971 20.3036C128.306 20.7878 128.474 21.4116 128.474 22.1751V22.9386C128.474 23.3234 128.526 23.7083 128.632 24.0931C128.737 24.478 128.899 24.7511 129.116 24.9125V25.0801H126.192C125.832 24.7945 125.652 24.0807 125.652 22.9386V22.1937C125.652 21.6102 125.497 21.1664 125.187 20.8622C124.883 20.5581 124.433 20.406 123.837 20.406L121.891 20.3874V25.0615ZM121.891 15.0615V18.2273H123.753C124.324 18.2273 124.759 18.1 125.057 17.8455C125.361 17.5848 125.513 17.2062 125.513 16.7096C125.513 16.2068 125.358 15.8064 125.047 15.5085C124.737 15.2105 124.302 15.0615 123.744 15.0615H121.891ZM140.568 12.8828V25.0801H137.747L133.278 17.3055L133.232 17.3241V25.0801H130.392V12.8828H133.232L137.691 20.6574L137.747 20.6388V12.8828H140.568ZM145.513 12.8828V25.0801H142.682V12.8828H145.513ZM154.879 20.0987V17.8827C154.879 16.9889 154.671 16.2689 154.256 15.7226C153.84 15.1764 153.259 14.9033 152.514 14.9033C151.77 14.9033 151.189 15.1764 150.773 15.7226C150.364 16.2627 150.159 16.9827 150.159 17.8827V20.0987C150.159 21.005 150.367 21.7313 150.783 22.2775C151.205 22.8237 151.785 23.0969 152.524 23.0969C153.269 23.0969 153.846 22.8237 154.256 22.2775C154.671 21.7313 154.879 21.005 154.879 20.0987ZM157.701 17.9014V20.0987C157.701 21.6133 157.223 22.8548 156.267 23.8231C155.317 24.7914 154.072 25.2756 152.533 25.2756C150.994 25.2756 149.743 24.7914 148.781 23.8231C147.819 22.8548 147.338 21.6133 147.338 20.0987V17.9014C147.338 16.9082 147.552 16.0206 147.98 15.2385C148.414 14.4501 149.026 13.8356 149.814 13.3949C150.609 12.948 151.512 12.7245 152.524 12.7245C154.057 12.7245 155.301 13.2087 156.257 14.177C157.22 15.1453 157.701 16.3868 157.701 17.9014Z" fill="#432C42"/>
</svg>
